<?xml version="1.0" encoding="UTF-8" standalone="no"?>
<svg
   xmlns:dc="http://purl.org/dc/elements/1.1/"
   xmlns:cc="http://creativecommons.org/ns#"
   xmlns:rdf="http://www.w3.org/1999/02/22-rdf-syntax-ns#"
   xmlns:svg="http://www.w3.org/2000/svg"
   xmlns="http://www.w3.org/2000/svg"
   xmlns:sodipodi="http://sodipodi.sourceforge.net/DTD/sodipodi-0.dtd"
   xmlns:inkscape="http://www.inkscape.org/namespaces/inkscape"
   version="1.1"
   id="Layer_1"
   x="0px"
   y="0px"
   width="100%"
   viewBox="0 0 1024 1024"
   enable-background="new 0 0 1024 1024"
   xml:space="preserve"
   sodipodi:docname="pcprep-logo-only.svg"
   inkscape:version="0.92.5 (2060ec1f9f, 2020-04-08)"><metadata
   id="metadata83"><rdf:RDF><cc:Work
       rdf:about=""><dc:format>image/svg+xml</dc:format><dc:type
         rdf:resource="http://purl.org/dc/dcmitype/StillImage" /></cc:Work></rdf:RDF></metadata><defs
   id="defs81" /><sodipodi:namedview
   pagecolor="#ffffff"
   bordercolor="#666666"
   borderopacity="1"
   objecttolerance="10"
   gridtolerance="10"
   guidetolerance="10"
   inkscape:pageopacity="0"
   inkscape:pageshadow="2"
   inkscape:window-width="1848"
   inkscape:window-height="1016"
   id="namedview79"
   showgrid="false"
   inkscape:zoom="0.65186406"
   inkscape:cx="254.00227"
   inkscape:cy="523.3028"
   inkscape:window-x="72"
   inkscape:window-y="27"
   inkscape:window-maximized="1"
   inkscape:current-layer="Layer_1" />
<path
   d="m 719.41614,803.64639 c -59.66218,32.26053 -118.92742,64.01144 -177.80021,96.47385 -12.24358,6.75096 -22.68914,5.69413 -34.03608,-0.81275 C 428.7257,854.0892 349.83944,808.9265 270.88991,763.87498 232.11565,741.74894 193.27257,719.73968 154.25552,698.04635 145.5301,693.195 141.77117,687.27608 141.7969,676.92604 c 0.31337,-125.93738 0.28764,-251.87602 0.005,-377.81352 -0.0218,-9.72094 3.42043,-15.39604 11.87299,-19.67873 97.40999,-49.35515 194.72036,-98.90688 292.06271,-148.39561 16.29485,-8.28429 32.74405,-16.27665 48.87087,-24.87489 8.18411,-4.36349 15.52773,-3.88236 23.59161,0.2333 48.62793,24.81883 97.39426,49.36631 146.0704,74.09109 64.97679,33.00464 129.8761,66.16226 194.91913,99.03561 7.36922,3.72448 10.80596,8.57946 10.79787,16.97492 -0.13243,138.31656 -0.11822,276.63335 0.008,414.94988 0.006,7.21357 -2.14017,12.00715 -8.80733,15.58161 -47.16754,25.28763 -94.17646,50.87072 -141.7722,76.61669 M 653.6545,624.19145 c -4.69743,-2.62197 -9.51038,-5.05939 -14.06477,-7.90991 -6.52877,-4.0863 -8.82597,-13.07275 -5.38735,-19.92222 3.07703,-6.12888 10.77726,-8.69023 18.21144,-5.95372 1.75721,0.64676 3.41328,1.59263 5.06865,2.48825 56.54741,30.59505 113.08099,61.21583 169.6488,91.77313 4.14165,2.23727 8.07788,5.11169 13.49263,6.12983 0,-123.43246 0,-246.15381 0,-369.06525 -4.96909,0.26313 -8.256,2.74989 -11.72193,4.65004 -14.62397,8.01764 -29.18813,16.14468 -43.76667,24.24526 -60.88502,33.83077 -121.77131,67.6596 -182.64509,101.51069 -6.21717,3.4573 -11.87816,2.63474 -17.0112,-2.04962 -8.73813,-7.97428 -6.68193,-20.45937 4.46292,-26.66401 56.64843,-31.53768 113.32782,-63.0198 169.9872,-94.5377 19.94126,-11.09265 39.85667,-22.23173 61.30041,-34.19581 C 720.29298,243.57073 620.76079,193.1624 521.1678,142.72322 c -2.30479,4.65053 -1.68326,7.66207 -1.68809,10.56971 -0.0523,31.2236 -0.01,62.44738 -0.0568,93.67098 -0.0113,7.71223 -4.00374,12.86953 -10.4568,12.39069 -10.27064,-0.76203 -17.84002,-3.88298 -17.60402,-16.90088 0.59948,-33.06418 0.19921,-66.14645 0.19921,-100.43008 -99.99,50.89403 -199.29194,101.4378 -299.68492,152.5369 3.89358,2.3886 6.54774,4.12198 9.29726,5.68783 43.01237,24.4953 86.04574,48.95369 129.05308,73.45776 11.46174,6.53049 14.97344,14.8172 10.01888,23.2391 -5.03828,8.56421 -13.80599,9.69458 -25.26113,3.25763 -0.46911,-0.26359 -0.94602,-0.51328 -1.4151,-0.77688 -44.78825,-25.16965 -89.56957,-50.35157 -134.38316,-75.47597 -2.23087,-1.2507 -4.32772,-3.27375 -7.81686,-2.38706 0,110.00682 0,220.04345 0,331.25435 3.70827,-1.98186 6.32787,-3.26087 8.82981,-4.73886 16.44508,-9.71517 32.85076,-19.49688 49.2975,-29.20904 12.04314,-7.11164 23.99025,-14.40342 36.24472,-21.13312 8.27858,-4.54626 16.34878,-2.6373 20.76726,3.97244 4.24521,6.35054 2.37515,14.78392 -4.73473,20.39914 -13.39912,10.58237 -29.62619,16.27285 -43.96712,25.29301 -16.97876,10.67944 -34.46128,20.55784 -53.09597,31.59526 102.63759,58.73502 203.8006,116.62621 306.55165,175.42615 0,-4.91034 0,-7.79635 5e-5,-10.68233 5e-4,-64.06207 -0.003,-128.12412 0.003,-192.18619 0.002,-17.22677 -0.10692,-34.45523 0.10756,-51.67953 0.10853,-8.72206 2.41846,-16.78949 11.12253,-20.85081 12.83366,-5.98817 25.00558,2.99365 25.01257,18.32116 0.0401,88.2876 0.0181,176.5752 0.0992,264.8627 0.003,3.02785 -1.28474,6.44833 2.13752,9.75514 95.62339,-51.80935 191.368,-103.68451 288.95035,-156.55534 -56.29059,-31.13574 -110.13336,-60.9172 -165.04075,-91.21563 z"
   id="path2"
   inkscape:connector-curvature="0"
   style="opacity:1;fill:#000000;stroke:none;stroke-width:1.61506248" />

















<path
   d="m 135.91513,811.41395 c -10.8827,-13.99321 -9.82636,-32.38549 2.00754,-42.43173 11.63029,-9.87337 31.76973,-9.00265 41.8964,1.81154 11.1459,11.90265 10.94376,29.74493 -0.46818,41.31987 -12.31979,12.49574 -29.20701,12.39323 -43.43576,-0.69968 z"
   id="path38"
   inkscape:connector-curvature="0"
   style="opacity:1;fill:#000000;stroke:none;stroke-width:1.61506248" />


<path
   d="m 232.09139,858.60622 c -15.92957,-4.99916 -22.57223,-17.24757 -17.52261,-31.07388 4.60266,-12.6024 18.27671,-18.69004 30.95901,-13.78265 9.94996,3.85007 16.64068,15.12879 14.85756,25.04589 -2.15768,11.99991 -10.84756,19.61181 -22.76471,19.91139 -1.61106,0.0405 -3.22509,-0.0381 -5.52925,-0.10078 z"
   id="path44"
   inkscape:connector-curvature="0"
   style="opacity:1;fill:#000000;stroke:none;stroke-width:1.61506248" />

<path
   d="m 147.88029,875.78598 c 5.2527,-9.94116 12.71083,-14.37055 21.51584,-13.20598 8.73636,1.1555 15.21042,6.7054 17.21671,14.75914 2.18564,8.77352 -0.80875,16.9473 -8.02503,21.90635 -6.16029,4.23332 -16.95026,4.65001 -22.94859,0.56455 -8.43645,-5.74607 -10.22772,-13.94303 -7.75893,-24.02406 z"
   id="path48"
   inkscape:connector-curvature="0"
   style="opacity:1;fill:#000000;stroke:none;stroke-width:1.61506248" />
<path
   d="m 547.84,406.84868 c 2.67081,19.68999 -3.17699,32.07576 -17.31578,37.77964 -16.11032,6.49934 -33.45095,-0.33703 -40.42103,-15.93553 -6.74991,-15.10578 -0.7511,-32.91134 13.49022,-40.04116 15.6989,-7.85959 33.6228,-2.23984 42.02657,13.20617 0.76485,1.40588 1.32713,2.92202 2.22002,4.99088 z"
   id="path50"
   inkscape:connector-curvature="0"
   style="opacity:1;fill:#000000;stroke:none;stroke-width:1.61506248" />
<path
   d="m 445.45259,517.72098 c -18.10488,-5.90871 -24.96639,-16.08669 -23.99887,-34.66351 0.68215,-13.09819 9.93391,-23.44403 24.14618,-26.3734 11.60108,-2.3911 21.33251,1.69772 28.5551,10.65754 8.07822,10.02139 9.23696,21.6157 4.3038,33.36514 -4.56064,10.86237 -13.24777,16.54704 -25.062,17.21123 -2.40766,0.13535 -4.83405,-0.0615 -7.94421,-0.197 z"
   id="path52"
   inkscape:connector-curvature="0"
   style="opacity:1;fill:#000000;stroke:none;stroke-width:1.61506248" />
<path
   d="m 348.17129,574.26257 c -20.24156,-5.39179 -29.13027,-16.651 -27.11927,-33.53932 1.65376,-13.88826 12.61851,-24.67968 25.92015,-25.51046 16.96702,-1.05974 28.84657,6.98194 32.86304,22.24619 3.42155,13.00345 -3.50949,27.48006 -16.19495,33.54197 -4.64177,2.2181 -9.52954,3.67277 -15.46897,3.26162 z"
   id="path54"
   inkscape:connector-curvature="0"
   style="opacity:1;fill:#000000;stroke:none;stroke-width:1.61506248" />
<path
   d="m 431.51617,398.32149 c -11.96698,5.59285 -22.81453,4.05118 -32.03371,-3.97378 -7.87644,-6.85607 -11.29124,-16.00325 -8.96354,-26.74939 2.89043,-13.34437 11.83563,-21.70255 25.20603,-23.31493 10.88413,-1.31256 24.26019,6.60763 28.66819,16.97482 5.17739,12.17695 2.25975,24.90981 -7.74527,33.51935 -1.41447,1.21716 -3.03583,2.19385 -5.1317,3.54393 z"
   id="path56"
   inkscape:connector-curvature="0"
   style="opacity:1;fill:#000000;stroke:none;stroke-width:1.61506248" />
<path
   d="m 567.7361,494.3842 c 7.7371,9.88649 8.96309,22.09975 3.49215,31.23377 -5.42018,9.0492 -17.1773,14.52605 -26.84066,12.50338 -12.06151,-2.52467 -19.86112,-10.69146 -21.83015,-22.85785 -1.55297,-9.59544 3.63043,-20.40683 12.1448,-25.33117 11.00912,-6.36729 21.66031,-5.06368 33.03386,4.45187 z"
   id="path58"
   inkscape:connector-curvature="0"
   style="opacity:1;fill:#000000;stroke:none;stroke-width:1.61506248" />
<path
   d="m 467.10097,321.78951 c 1.42791,-14.36711 7.95018,-23.80547 22.03076,-26.90274 13.72611,-3.01926 27.12603,7.10663 29.85135,22.57276 2.30233,13.06488 -8.79827,27.93585 -21.81778,29.22837 -16.64405,1.65237 -25.87476,-5.79533 -30.06433,-24.89839 z"
   id="path60"
   inkscape:connector-curvature="0"
   style="opacity:1;fill:#000000;stroke:none;stroke-width:1.61506248" />
<path
   d="m 437.75378,611.45563 c -16.0959,-1.01611 -26.23609,-10.34063 -26.9576,-24.12727 -0.65633,-12.54217 7.30208,-22.77017 19.879,-25.54832 13.60737,-3.00568 25.45073,4.30188 29.4944,18.19858 3.53714,12.15599 -3.31284,25.31717 -15.54306,29.73517 -2.00773,0.72532 -4.12622,1.14408 -6.87274,1.74184 z"
   id="path62"
   inkscape:connector-curvature="0"
   style="opacity:1;fill:#000000;stroke:none;stroke-width:1.61506248" />
<path
   d="m 345.8394,297.17496 c 14.55183,3.08381 20.94445,10.71038 20.12957,23.22022 -0.66666,10.23383 -8.80871,18.76404 -18.92144,19.8236 -12.62875,1.32317 -23.06944,-7.03027 -24.09689,-19.27971 -1.13885,-13.57732 7.60205,-22.94092 22.88876,-23.76411 z"
   id="path64"
   inkscape:connector-curvature="0"
   style="opacity:1;fill:#000000;stroke:none;stroke-width:1.61506248" />
<path
   d="m 359.11231,431.6851 c 13.54803,-10.7548 33.29616,-4.57134 35.83877,12.99408 1.36467,9.42793 -3.26787,18.05998 -11.46339,22.04274 -8.73982,4.24718 -18.51809,2.60402 -25.16922,-4.22959 -6.90024,-7.08956 -8.25353,-16.43471 -3.49189,-25.242 1.0066,-1.8618 2.53038,-3.44398 4.28573,-5.56523 z"
   id="path66"
   inkscape:connector-curvature="0"
   style="opacity:1;fill:#000000;stroke:none;stroke-width:1.61506248" />
<path
   d="m 370.68838,666.93096 c -11.7825,4.75573 -20.56449,2.4747 -26.65682,-6.43776 -5.04771,-7.38417 -4.31682,-18.13481 1.67022,-24.56859 6.3152,-6.78645 17.42195,-8.08331 25.83888,-3.01696 12.11854,7.2944 11.96224,23.96185 -0.85228,34.02331 z"
   id="path68"
   inkscape:connector-curvature="0"
   style="opacity:1;fill:#000000;stroke:none;stroke-width:1.61506248" />
<path
   d="m 636.25955,535.56336 c -10.88147,-0.072 -17.634,-4.21045 -20.33261,-11.99901 -2.77509,-8.00912 -0.4491,-17.04456 5.65017,-21.94903 6.27029,-5.04205 15.04273,-5.71754 21.76549,-1.45056 6.81748,4.32708 9.51412,10.79009 8.3803,18.61389 -1.25447,8.65588 -5.54892,14.96693 -15.46335,16.78471 z"
   id="path70"
   inkscape:connector-curvature="0"
   style="opacity:1;fill:#000000;stroke:none;stroke-width:1.61506248" />
<path
   d="m 300.97962,445.17644 c 2.60815,10.85989 -0.84294,19.34197 -9.20791,23.7374 -6.99143,3.67381 -15.86834,2.16946 -21.49411,-3.64271 -6.37819,-6.58949 -7.23929,-15.84139 -2.27447,-23.66706 7.48384,-11.79619 27.11946,-10.92504 32.97649,3.57237 z"
   id="path72"
   inkscape:connector-curvature="0"
   style="opacity:1;fill:#000000;stroke:none;stroke-width:1.61506248" />
<path
   d="m 575.93956,321.91461 c 12.51832,6.01808 16.14609,16.30269 10.14471,27.15117 -5.22875,9.45179 -16.0971,11.80902 -25.51836,5.53461 -6.41441,-4.27192 -9.17127,-13.29104 -6.52806,-21.3565 2.73863,-8.35603 9.85135,-12.21202 21.90171,-11.32928 z"
   id="path74"
   inkscape:connector-curvature="0"
   style="opacity:1;fill:#000000;stroke:none;stroke-width:1.61506248" />
<path
   d="m 439.44046,267.74561 c -7.47932,9.86396 -16.11666,12.24143 -24.75637,7.28846 -7.98847,-4.57966 -11.4944,-13.83558 -8.37838,-22.11953 3.67307,-9.76492 13.62886,-14.13598 23.70136,-10.40606 9.43714,3.49463 13.37317,13.47232 9.43339,25.23713 z"
   id="path76"
   inkscape:connector-curvature="0"
   style="opacity:1;fill:#000000;stroke:none;stroke-width:1.61506248" />
</svg>